<svg xmlns="http://www.w3.org/2000/svg" width="25" height="24" viewBox="0 0 25 24">
    <path fill="#D71440" fill-rule="evenodd" d="M18.752 13c2.761 0 5 2.239 5 5 0 2.689-2.122 4.882-4.783 4.995l-.217.005h-12c-2.761 0-5-2.239-5-5 0-2.689 2.122-4.882 4.783-4.995L6.752 13h12zm0 2h-12c-1.657 0-3 1.343-3 3 0 1.598 1.249 2.904 2.824 2.995l.176.005h12c1.657 0 3-1.343 3-3 0-1.598-1.249-2.904-2.824-2.995L18.752 15zm-12 1.5c.828 0 1.5.672 1.5 1.5s-.672 1.5-1.5 1.5-1.5-.672-1.5-1.5.672-1.5 1.5-1.5zm12-15.5c2.761 0 5 2.239 5 5 0 2.689-2.122 4.882-4.783 4.995l-.217.005h-12c-2.761 0-5-2.239-5-5 0-2.689 2.122-4.882 4.783-4.995L6.752 1h12zm0 2h-12c-1.657 0-3 1.343-3 3 0 1.598 1.249 2.904 2.824 2.995L6.752 9h12c1.657 0 3-1.343 3-3 0-1.598-1.249-2.904-2.824-2.995L18.752 3zm-12 1.5c.828 0 1.5.672 1.5 1.5s-.672 1.5-1.5 1.5-1.5-.672-1.5-1.5.672-1.5 1.5-1.5z"/>
</svg>
